<?xml version="1.0" encoding="utf-8"?>
<!-- Generator: Adobe Illustrator 20.1.0, SVG Export Plug-In . SVG Version: 6.00 Build 0)  -->
<svg version="1.1" id="Layer_1" xmlns="http://www.w3.org/2000/svg" xmlns:xlink="http://www.w3.org/1999/xlink" x="0px" y="0px"
	 viewBox="0 0 181 100" style="enable-background:new 0 0 181 100;" xml:space="preserve">
<style type="text/css">
	.st0{fill:#FFFFFF;}
</style>
<polygon class="st0" points="58.8,23.2 90.5,23.2 74.6,14 "/>
<polygon class="st0" points="58.8,23.2 90.5,23.2 74.6,14 "/>
<polygon class="st0" points="58.8,41.7 74.6,50.9 58.8,23.2 "/>
<polygon class="st0" points="58.8,41.7 74.6,50.9 74.6,50.9 58.8,23.2 "/>
<polygon class="st0" points="74.6,50.9 90.5,41.7 90.5,23.2 "/>
<polygon class="st0" points="74.6,50.9 90.5,41.7 90.5,23.2 "/>
<polygon class="st0" points="90.5,41.7 106.4,50.9 122.2,41.7 "/>
<polygon class="st0" points="90.5,41.7 106.4,50.9 122.2,41.7 "/>
<polygon class="st0" points="90.5,23.2 90.5,41.7 106.4,14 "/>
<polygon class="st0" points="90.5,23.2 90.5,41.7 106.4,14 106.4,14 "/>
<polygon class="st0" points="106.4,14 122.2,41.7 122.2,23.2 "/>
<polygon class="st0" points="106.4,14 122.2,41.7 122.2,23.2 "/>
<polygon class="st0" points="44.5,58.6 33.5,86.3 41.2,86.3 48.6,65.8 55.9,86.3 63.6,86.3 52.7,58.6 "/>
<path class="st0" d="M105.9,80.9c-4.7,0-8-3.5-8-8.4s3.3-8.4,8-8.4c4.9,0,8,3.3,8,8.4C113.9,77.5,110.7,80.9,105.9,80.9 M105.9,57.9
	c-8.8,0-15.3,5.7-15.3,14.5c0,9,6.3,14.5,15.3,14.5s15.3-5.6,15.3-14.5C121.2,63.5,114.8,57.9,105.9,57.9"/>
<polygon class="st0" points="12,58.6 0,86.3 8.2,86.3 19.5,79.7 10.2,79.7 15.7,65.4 23.8,86.3 31.5,86.3 19.5,58.6 "/>
<path class="st0" d="M77.2,58.6H65.8v27.7h7.3V64.7h3.6c2.6,0,4.8,1.3,4.8,4.2s-2.3,4.2-4.8,4.2h-1.9l3.3,5.6
	c5.3,0,10.4-3.3,10.4-10.3C88.4,61.6,83.4,58.6,77.2,58.6"/>
<polygon class="st0" points="169,58.6 161.5,58.6 149.5,86.3 157.2,86.3 165.3,65.4 170.8,79.7 161.5,79.7 172.8,86.3 181,86.3 "/>
<path class="st0" d="M138.5,64.1c2.5,0,5.1,0.8,7,1.9l2.4-5.5c-2.7-1.6-6.2-2.5-9.3-2.5c-9.8,0-15.1,7-15.1,14.5S128.7,87,138.6,87
	c3.1,0,6.6-0.9,9.3-2.5l-2.4-5.5c-1.9,1.1-4.5,1.9-7,1.9c-3.9,0-7.7-3.3-7.7-8.4C130.9,67.4,134.6,64.1,138.5,64.1"/>
</svg>
