<?xml version="1.0" encoding="utf-8"?>
<!-- Generator: Adobe Illustrator 20.1.0, SVG Export Plug-In . SVG Version: 6.00 Build 0)  -->
<svg version="1.1" id="Layer_1" xmlns="http://www.w3.org/2000/svg" xmlns:xlink="http://www.w3.org/1999/xlink" x="0px" y="0px"
	 viewBox="0 0 226 100" style="enable-background:new 0 0 226 100;" xml:space="preserve">
<style type="text/css">
	.st0{fill:#FFFFFF;}
</style>
<g>
	<path class="st0" d="M86.1,85.8c-0.8,0.8-2.4,1.2-4.6,1.2h-7.4c-2.2,0-3.8-0.4-4.6-1.2c-0.9-0.8-1.3-2-1.3-3.6v-7.1
		c0-1.6,0.4-2.8,1.3-3.6s2.4-1.2,4.6-1.2h7.4c2.2,0,3.8,0.4,4.6,1.2c0.8,0.8,1.2,2,1.2,3.6v7.1C87.4,83.7,87,84.9,86.1,85.8
		 M82.3,76.7c0-0.9-0.2-1.6-0.6-2s-1.2-0.6-2.6-0.6h-2.8c-1.2,0-2.1,0.2-2.5,0.7s-0.6,1.1-0.6,2v3.8c0,0.9,0.2,1.5,0.6,2
		s1.2,0.7,2.5,0.7h2.8c1.3,0,2.2-0.2,2.5-0.6c0.4-0.4,0.6-1.1,0.6-2L82.3,76.7L82.3,76.7z"/>
	<path class="st0" d="M108.2,85.8c-0.8,0.8-2.4,1.2-4.6,1.2h-7.4c-2.2,0-3.8-0.4-4.6-1.2c-0.9-0.8-1.3-2-1.3-3.6v-7.1
		c0-1.6,0.4-2.8,1.3-3.6s2.4-1.2,4.6-1.2h7.4c2.2,0,3.8,0.4,4.6,1.2c0.8,0.8,1.2,2,1.2,3.6v1.6h-5c0-0.9-0.2-1.6-0.6-2
		s-1.2-0.6-2.6-0.6h-2.8c-1.2,0-2.1,0.2-2.5,0.7s-0.6,1.1-0.6,2v3.8c0,0.9,0.2,1.5,0.6,2s1.2,0.7,2.5,0.7h2.8c1.3,0,2.2-0.2,2.6-0.6
		s0.6-1.1,0.6-2h5v1.6C109.5,83.7,109.1,84.9,108.2,85.8"/>
	<polygon class="st0" points="117.5,87 112.4,87 112.4,82.2 112.4,75.1 112.4,70.2 117.5,70.2 117.5,76.6 126.5,76.6 126.5,70.2 
		131.6,70.2 131.6,75.1 131.6,82.2 131.6,87 126.5,87 126.5,80.5 117.5,80.5 	"/>
	<path class="st0" d="M141,80.5h-1.4c0,0.9,0.2,1.6,0.6,2c0.4,0.5,1.2,0.7,2.5,0.7h2.8h8.2V87h-5.9h-7.4c-2.2,0-3.8-0.4-4.6-1.2
		c-0.9-0.8-1.3-2-1.3-3.6v-7.1c0-1.6,0.4-2.8,1.3-3.6c0.9-0.8,2.4-1.2,4.6-1.2h7.4h5.9V74h-8.2h-2.8c-1.2,0-2,0.2-2.5,0.7
		c-0.4,0.5-0.6,1.1-0.6,1.9h1.4h12.7v3.8L141,80.5L141,80.5z"/>
	<polygon class="st0" points="192.4,74 185.5,74 185.5,70.2 191.3,70.2 198.7,70.2 204.6,70.2 204.6,74 197.4,74 197.4,87 192.4,87 
			"/>
	<path class="st0" d="M181.1,73.2h-7.8v-3.1h-5v3.1h-8c0,0-4.5,0.1-4.5,5.3c0,5.1,4.7,5.2,4.7,5.2h7.8V87h5v-3.3h7.7
		c0,0,4.7,0,4.7-5.2C185.6,73.4,181.1,73.2,181.1,73.2 M178.4,80.3h-5.1v-3.5h5.1c0,0,1.7-0.2,1.7,1.9
		C180.1,80.4,178.4,80.3,178.4,80.3 M161.4,78.6c0-2.1,1.8-1.9,1.8-1.9h5.1v3.5h-5.1C163.2,80.3,161.4,80.4,161.4,78.6"/>
	<path class="st0" d="M64,71.5c-0.8-0.8-2.4-1.2-4.6-1.2H46.2V87h5v-5.8h8.3c2.2,0,3.8-0.4,4.6-1.2c0.8-0.8,1.2-2,1.2-3.6v-1.3
		C65.3,73.5,64.9,72.3,64,71.5 M58.6,77.4h-7.4V74h7.4c0.9,0,1.7,0.8,1.7,1.7C60.3,76.7,59.5,77.4,58.6,77.4"/>
	<path class="st0" d="M226,82.2v-1.3c0-1.6-0.4-2.8-1.2-3.6c-0.8-0.8-2.4-1.2-4.6-1.2h-8.3v-5.8h-5V87h13.3c2.2,0,3.8-0.4,4.6-1.2
		C225.6,84.9,226,83.7,226,82.2 M221,81.5c0,0.9-0.8,1.7-1.7,1.7h-7.4v-3.4h7.4C220.2,79.8,221,80.6,221,81.5"/>
	<rect x="15.4" y="53.7" class="st0" width="6.5" height="33"/>
	<path class="st0" d="M29.6,86.8L29.6,86.8V46.1l0,0V86.8z M23.1,86.8h6.5V46h-6.5V86.8z"/>
	<path class="st0" d="M37.3,86.8L37.3,86.8v-33l0,0V86.8z M30.8,86.8h6.5v-33h-6.5V86.8z"/>
	<polygon class="st0" points="6.5,56 0,49.6 0,34.1 6.5,34.1 	"/>
	<polygon class="st0" points="14.2,63.7 7.7,57.2 7.7,26.4 14.2,26.4 	"/>
	<rect x="15.4" y="18.7" class="st0" width="6.5" height="33.9"/>
	<rect x="23" y="11" class="st0" width="6.5" height="33.9"/>
	<polygon class="st0" points="46.2,56 52.6,49.5 52.6,34.1 46.2,34.1 	"/>
	<polygon class="st0" points="38.5,63.7 45,57.1 45,26.4 38.5,26.4 	"/>
	<rect x="30.8" y="18.7" class="st0" width="6.5" height="33.9"/>
</g>
</svg>
