<?xml version="1.0" encoding="utf-8"?>
<!-- Generator: Adobe Illustrator 20.1.0, SVG Export Plug-In . SVG Version: 6.00 Build 0)  -->
<svg version="1.1" id="Isolation_Mode" xmlns="http://www.w3.org/2000/svg" xmlns:xlink="http://www.w3.org/1999/xlink" x="0px"
	 y="0px" viewBox="0 0 160 100" style="enable-background:new 0 0 160 100;" xml:space="preserve">
<style type="text/css">
	.st0{fill:#FFFFFF;}
</style>
<path class="st0" d="M141.2,77.2v-4.8c0,0,4,1,4-2.8c0-3.8,0-12.4,0-12.4H160v20h-5.4V61.8h-4v7.7C150.6,69.5,151.7,79.5,141.2,77.2
	L141.2,77.2z"/>
<path class="st0" d="M125.1,52.7l3.1-1.2c0,0,0.1,1.7,2.3,1.7s2.3-1.7,2.3-1.7l3.2,1.2c0,0-0.8,3.3-5.5,3.3
	C125.9,56,125.1,52.7,125.1,52.7L125.1,52.7z M121.5,77.1h5.4l7.4-12v12h5.2v-20h-5.4l-7.4,12.1V57.1h-5.2L121.5,77.1L121.5,77.1z"
	/>
<polygon class="st0" points="81.9,77.1 81.9,57.1 87.3,57.1 87.3,65.6 92.9,57.1 99.3,57.1 92.1,66.8 99.7,77.1 92.9,77.1 
	87.3,68.6 87.3,77.1 "/>
<polygon class="st0" points="66,77.1 68.8,71.5 61.7,57.1 68.1,57.1 71.6,65.5 74.7,57.1 80.6,57.1 71.8,77.1 "/>
<path class="st0" d="M41.5,77.1v-4.8c0,0,4,1,4-2.8s0-12.4,0-12.4h14.8v20H55V61.8h-4v7.7C51,69.5,52.1,79.5,41.5,77.1L41.5,77.1z"
	/>
<path class="st0" d="M112.5,57.1c-3.5-3.6-3.8-5.8-3.8-5.8s-0.4,2.5-3.6,5.8c-3.1,3.2-7.7,7.1-7.7,11s2.9,10.5,11.3,10.5
	c8.3,0,11.3-6.7,11.3-10.5C120,64.3,116,60.7,112.5,57.1L112.5,57.1z M103.7,61.9c-0.1,0.2-0.9,2.2-1,3.6s-0.1,3.6-0.1,4
	c0,0.3-0.1,0.5-0.4,0.3c-0.4-0.2-1.8-1.3-1.5-3.7c0.4-2.4,2-3.8,2.8-4.5c0,0,0.1-0.1,0.2-0.1C103.9,61.5,103.8,61.6,103.7,61.9
	L103.7,61.9z"/>
<path class="st0" d="M0,50v36.7h37.3V50H0L0,50z M11.7,56c0,0,0.1-2.1,2.1-2.1s2.1,2.1,2.1,2.1v14.3c0,0,0,1.3,1.5,1.3
	c1.4,0,1.4-1.3,1.4-1.3V56c0,0,0.2-2,2.1-2c2,0,2.1,2.1,2.1,2.1v14.3c0,0-0.1,5.3-5.7,5.5c-5.6-0.2-5.7-5.5-5.7-5.5L11.7,56L11.7,56
	z M8.8,81.5c0,0-4.3,0-4.3-4.2c0-4.2,0-21.2,0-21.2s0-2.1,2.2-2.1c2.1,0,2.1,2,2.1,2v19.9c0,0-0.2,1.3,1.5,1.3c1.6,0,19.2,0,19.2,0
	L24.9,66c0,0-0.7-1.9,0-3.3c0.7-1.3,3.9-6.7,3.9-6.7s0.8-2,2.4-2c1.6,0,2.6,1.7,1.9,3c-0.7,1.2-3.7,6.4-3.7,6.4s-0.8,1.1,0,2.5
	c1.3,3,6.4,15.6,6.4,15.6H8.8L8.8,81.5z"/>
<polygon class="st0" points="46,82.3 42.2,82.3 42.2,79.4 41.4,79.4 41.4,86.7 42.2,86.7 42.2,83.1 46,83.1 46,86.7 46.8,86.7 
	46.8,79.4 46,79.4 "/>
<polygon class="st0" points="49.1,86.7 52.9,86.7 52.9,85.9 49.9,85.9 49.9,83.1 52.8,83.1 52.8,82.3 49.9,82.3 49.9,80.2 
	52.9,80.2 52.9,79.4 49.1,79.4 "/>
<path class="st0" d="M59,80h-0.2v-0.9H58V80h-0.2c-2.7,0-3.4,1.7-3.4,2.8c0,1.2,0.6,2.8,3.4,2.8H58v1h0.8v-1H59
	c2.7,0,3.4-1.7,3.4-2.8C62.4,81.6,61.8,80,59,80z M58,84.9h-0.2c-2,0-2.5-1.1-2.5-2.1c0-0.9,0.5-2.1,2.5-2.1H58V84.9z M59.1,84.9
	h-0.2v-4.1h0.2c2,0,2.5,1.1,2.5,2.1C61.6,83.7,61.1,84.9,59.1,84.9z"/>
<polygon class="st0" points="63.5,80.2 65.3,80.2 65.3,86.7 66.1,86.7 66.1,80.2 67.9,80.2 67.9,79.4 63.5,79.4 "/>
<path class="st0" d="M69.6,80c-0.3,0.3-0.5,0.8-0.5,1.5c0,0.5,0.1,1.1,0.6,1.5c0.4,0.3,0.9,0.4,1.2,0.5l-2.2,3.2h1l2.1-3.2h0.4v3.2
	H73v-7.3h-1.7C71,79.4,70.2,79.4,69.6,80z M72.4,80.2v2.6h-0.9c-0.4,0-0.8-0.1-1.1-0.3c-0.2-0.2-0.4-0.5-0.4-1
	c0-0.4,0.2-0.7,0.4-0.9c0.4-0.4,0.9-0.4,1.3-0.4H72.4z"/>
<polygon class="st0" points="80.1,82.3 76.3,82.3 76.3,79.4 75.5,79.4 75.5,86.7 76.3,86.7 76.3,83.1 80.1,83.1 80.1,86.7 
	80.9,86.7 80.9,79.4 80.1,79.4 "/>
<path class="st0" d="M82.3,86.7h0.9l0.9-2.1h3.1l0.9,2.1H89L85.7,79L82.3,86.7z M84.4,83.9l1.3-2.9l1.2,2.9H84.4z"/>
<path class="st0" d="M90.7,80c-0.3,0.3-0.5,0.8-0.5,1.5c0,0.5,0.1,1.1,0.6,1.5c0.4,0.3,0.9,0.4,1.2,0.5l-2.2,3.2h1l2.1-3.2h0.4v3.2
	h0.8v-7.3h-1.7C92,79.4,91.2,79.4,90.7,80z M93.4,80.2v2.6h-0.9c-0.4,0-0.8-0.1-1.1-0.3c-0.2-0.2-0.4-0.5-0.4-1
	c0-0.4,0.2-0.7,0.4-0.9c0.4-0.4,0.9-0.4,1.3-0.4H93.4z"/>
<polygon class="st0" points="104.5,79.4 103.4,79.4 100.3,82.5 100.3,79.4 99.5,79.4 99.5,86.7 100.3,86.7 100.3,83.5 100.5,83.3 
	103.5,86.7 104.7,86.7 101.1,82.8 "/>
<path class="st0" d="M109.6,79.3c-2.1,0-3.8,1.6-3.8,3.8c0,2.2,1.7,3.8,3.8,3.8c2.1,0,3.8-1.6,3.8-3.8
	C113.4,80.9,111.7,79.3,109.6,79.3z M109.6,86c-1.6,0-3-1.3-3-3s1.3-3,3-3c1.6,0,3,1.3,3,3S111.3,86,109.6,86z"/>
<polygon class="st0" points="119.1,85.1 116.3,79 115.1,86.7 115.9,86.7 116.7,81.6 119.1,87 121.6,81.6 122.3,86.7 123.1,86.7 
	122,79 "/>
<polygon class="st0" points="125.3,86.7 126.1,86.7 126.1,80.2 129.8,80.2 129.8,86.7 130.7,86.7 130.7,79.4 125.3,79.4 "/>
<path class="st0" d="M132.1,86.7h0.9l0.9-2.1h3.1l0.9,2.1h0.9l-3.3-7.6L132.1,86.7z M134.2,83.9l1.3-2.9l1.2,2.9H134.2z"/>
<polygon class="st0" points="144.8,82.3 141.1,82.3 141.1,79.4 140.3,79.4 140.3,86.7 141.1,86.7 141.1,83.1 144.8,83.1 144.8,86.7 
	145.6,86.7 145.6,79.4 144.8,79.4 "/>
<polygon class="st0" points="148.8,79.4 148,79.4 148,87 153.1,81.1 153.1,86.7 153.9,86.7 153.9,79.1 148.8,85 "/>
<path class="st0" d="M158.2,79.4c-0.4,0-1.3,0-1.8,0.7c-0.3,0.3-0.5,0.8-0.5,1.5c0,0.5,0.1,1.1,0.6,1.5c0.4,0.3,0.9,0.4,1.2,0.5
	l-2.2,3.2h1l2.1-3.2h0.4v3.2h0.8v-7.3L158.2,79.4L158.2,79.4z M159.1,82.8h-0.9c-0.4,0-0.8-0.1-1.1-0.3c-0.2-0.2-0.4-0.5-0.4-1
	c0-0.4,0.2-0.7,0.4-0.9c0.4-0.4,0.9-0.4,1.3-0.4h0.8v2.6H159.1z"/>
</svg>
