<?xml version="1.0" encoding="utf-8"?>
<!-- Generator: Adobe Illustrator 20.1.0, SVG Export Plug-In . SVG Version: 6.00 Build 0)  -->
<svg version="1.1" id="Isolation_Mode" xmlns="http://www.w3.org/2000/svg" xmlns:xlink="http://www.w3.org/1999/xlink" x="0px"
	 y="0px" viewBox="0 0 160 100" style="enable-background:new 0 0 160 100;" xml:space="preserve">
<style type="text/css">
	.st0{fill:#FFFFFF;}
</style>
<g>
	<path class="st0" d="M41.1,56.9L41.1,56.9c6-8.8,9-17.8,9-28.4c0-10.5-3.2-19.7-9-28.6l0,0c-5.2,8.3-8.6,17-8.9,26.6
		C31.9,37.4,35,48,41.1,56.9L41.1,56.9z M41.1,54.9L41.1,54.9c-1.6-3.3-2.5-6.8-2.5-10.3s0.9-7.2,2.5-10.3l0,0
		c1.6,3.3,2.6,6.6,2.6,10.3C43.7,48.3,42.7,51.5,41.1,54.9L41.1,54.9z M34.4,26.4c0.6-7.8,3-14.8,6.7-21.9v0.1
		c4.3,7.5,6.4,15,6.9,23.6c0.2,3.8-0.2,7.4-1,11.1c0.2-3.8-0.1-7.4-0.7-11.1c-0.9-5.1-2.8-9.8-5.2-14.4l0,0c-2.2,4.2-3.8,8.3-4.8,13
		c-1,4.2-1.2,8.2-1.2,12.6C34.6,34.9,34.1,30.7,34.4,26.4L34.4,26.4z"/>
	<path class="st0" d="M32,67.4c1.7-1.7,3.3-2.5,5.8-2.3c4,0.3,6.5,2.7,6.7,6.6c0.4,7.4-9.5,11.9-15.7,11.6c-9-0.5-15-6.2-16.4-14.4
		c-0.9-4.9,1-10.4,4.6-14.2c3.5-3.7,8.2-5.2,13.1-5.3V27.1c-16.8,0-29.2,11.8-30,28c-0.9,18,12.3,30.3,29.1,30.9
		c9,0.3,15.7-3,21.8-8.7V58.1H32V67.4L32,67.4z"/>
	<polygon class="st0" points="55.4,85.3 61,85.3 61,62.4 63.6,62.4 63.6,58.1 55.4,58.1 	"/>
	<path class="st0" d="M66.5,58.1l-2.7,27.3h5l0.6-5h2.2l0.7,5h5l-2.7-27.3L66.5,58.1L66.5,58.1z M69.6,75.4l0.8-9.8h0.3l0.8,9.8
		H69.6L69.6,75.4z"/>
	<path class="st0" d="M90.4,71.3V71c1.2-0.2,1.2-2.6,1.2-3.7v-4.4c0-3.3-0.3-4.9-4.1-4.9h-4.7c-4,0-4.2,2-4.2,4.9v3.6h5.6v-3.1
		c0-0.7,0.6-0.9,0.9-0.9c0.5,0,0.9,0.5,0.9,0.9v3.3c0,1.7-0.5,2-2.1,2h-1v4.8h0.9c2.1,0,2.2,1,2.2,1.8v4.9c0,0.5-0.3,0.9-0.9,0.9
		c-0.3,0-0.9-0.2-0.9-0.9v-4.8h-5.6v5c0,3.9,0.2,4.9,4.2,4.9h4.7c3.6,0,4.1-0.7,4.1-4.9V75C91.6,74,91.8,71.3,90.4,71.3L90.4,71.3z"
		/>
	<polygon class="st0" points="94.1,85.3 99.7,85.3 99.7,62.5 101.5,62.5 101.5,85.3 107.1,85.3 107.1,58.1 94.1,58.1 	"/>
	<path class="st0" d="M118.9,58.1h-8.8v27.3h5.6V76h3.2c3.9,0,4.2-1.8,4.2-4.8v-8.3C123.1,60.5,122.8,58.1,118.9,58.1L118.9,58.1z
		 M117.4,70.4c0,0.9-0.5,1.4-1,1.4h-0.7v-9.4h0.7c0.6,0,1,0.5,1,1.4V70.4L117.4,70.4z"/>
	<path class="st0" d="M134.3,58.1h-4.7c-3.9,0-4.1,2.3-4.1,4.8v17.6c0,3.2,0.3,4.9,4.1,4.9h4.7c3.9,0,4.1-1.5,4.1-4.9V62.9
		C138.4,60.3,138.2,58.1,134.3,58.1L134.3,58.1z M132.8,80.1c0,0.5-0.4,0.8-0.9,0.8c-0.3,0-0.9-0.1-0.9-0.8V63.4
		c0-0.7,0.5-0.9,0.9-0.9c0.5,0,0.9,0.5,0.9,0.9V80.1L132.8,80.1z"/>
	<polygon class="st0" points="152.7,58.1 150.4,70.6 148.4,58.1 141,58.1 141,85.3 146.7,85.3 146.7,73 146.9,73 148.8,85.3 
		152.3,85.3 154.2,73 154.4,73 154.4,85.3 160,85.3 160,58.1 	"/>
</g>
</svg>
