<?xml version="1.0" encoding="utf-8"?>
<!-- Generator: Adobe Illustrator 20.1.0, SVG Export Plug-In . SVG Version: 6.00 Build 0)  -->
<svg version="1.1" id="Layer_1" xmlns="http://www.w3.org/2000/svg" xmlns:xlink="http://www.w3.org/1999/xlink" x="0px" y="0px"
	 viewBox="0 0 48 48" style="enable-background:new 0 0 48 48;" xml:space="preserve">
<style type="text/css">
	.st0{fill:none;stroke:#8F8F8F;stroke-miterlimit:10;}
	.st1{fill:none;stroke:#8F8F8F;stroke-linecap:round;stroke-miterlimit:10;}
</style>
<path class="st0" d="M31.3,32c-0.1,0.1-0.3,0.3-0.4,0.4c-0.4,0.4-1,0.6-1.6,0.6c-1.9,0-4.6-1.8-8.5-5.8c-2.1-2.1-3.6-3.9-4.5-5.3
	c-1.4-2.2-1.6-3.8-0.6-4.8c0.1-0.1,0.3-0.3,0.4-0.4c1-1,1.7-1.7,1.9-2.6c0.1-1.1-0.5-2.5-2.1-4.5c-1.1-1.4-2.2-2.1-3.2-2.1
	c-1.4,0-2.6,1.3-3.7,2.5c-0.2,0.2-0.5,0.5-0.7,0.7c-0.8,0.8-1.2,3.1,0.3,7.2c1.6,4.2,4.7,8.7,8.8,12.8c3.2,3.2,6.6,5.8,10,7.5
	c2.9,1.5,5.6,2.3,7.6,2.3c1.1,0,1.9-0.2,2.4-0.7c0.2-0.2,0.5-0.4,0.7-0.7c1.2-1.1,2.6-2.4,2.5-3.8c0-1-0.8-2-2.1-3.1
	c-1.8-1.4-3.1-2.1-4.2-2.1C33.2,30.1,32.5,30.8,31.3,32z"/>
<path class="st1" d="M25.9,7.5c3.1,0,6.9,1.6,10,4.7c3.1,3.1,4.7,6.9,4.7,10"/>
<path class="st1" d="M26.6,13.4c1.7,0,3.8,0.9,5.4,2.6c1.7,1.7,2.6,3.7,2.6,5.5"/>
</svg>
