<?xml version="1.0" encoding="utf-8"?>
<!-- Generator: Adobe Illustrator 20.1.0, SVG Export Plug-In . SVG Version: 6.00 Build 0)  -->
<svg version="1.1" id="Layer_1" xmlns="http://www.w3.org/2000/svg" xmlns:xlink="http://www.w3.org/1999/xlink" x="0px" y="0px"
	 viewBox="0 0 48 48" style="enable-background:new 0 0 48 48;" xml:space="preserve">
<style type="text/css">
	.st0{fill:none;stroke:#8F8F8F;stroke-miterlimit:10;}
	.st1{fill:none;stroke:#8F8F8F;stroke-linecap:round;stroke-miterlimit:10;}
</style>
<g>
	<polygon class="st0" points="40.5,24 38.7,25.9 39.9,28.3 37.7,29.7 38.3,32.3 35.8,33 35.7,35.7 33,35.8 32.3,38.3 29.7,37.7 
		28.3,39.9 25.9,38.7 24,40.5 22.1,38.7 19.7,39.9 18.3,37.7 15.7,38.3 15,35.8 12.3,35.7 12.2,33 9.7,32.3 10.3,29.7 8.1,28.3 
		9.3,25.9 7.5,24 9.3,22.1 8.1,19.7 10.3,18.3 9.7,15.7 12.2,15 12.3,12.3 15,12.2 15.7,9.7 18.3,10.3 19.7,8.1 22.1,9.3 24,7.5 
		25.9,9.3 28.3,8.1 29.7,10.3 32.3,9.7 33,12.2 35.7,12.3 35.8,15 38.3,15.7 37.7,18.3 39.9,19.7 38.7,22.1 	"/>
</g>
<line class="st1" x1="16.5" y1="31.5" x2="31.5" y2="16.5"/>
<circle class="st1" cx="20" cy="20" r="3.5"/>
<circle class="st1" cx="28" cy="28" r="3.5"/>
</svg>
