<?xml version="1.0" encoding="utf-8"?>
<!-- Generator: Adobe Illustrator 20.0.0, SVG Export Plug-In . SVG Version: 6.00 Build 0)  -->
<svg version="1.1" id="Слой_1" xmlns="http://www.w3.org/2000/svg" xmlns:xlink="http://www.w3.org/1999/xlink" x="0px" y="0px"
	 viewBox="0 0 350 100" style="enable-background:new 0 0 350 100;" xml:space="preserve">
<g>
	<g>
		<g>
			<g>
				<path d="M261.4,27.9c0.9-0.9,1.8-1.9,2.5-3.1c-0.2-0.3-0.2-0.5-0.9-0.5c-0.5,0.7-1,1.4-1.7,2c-0.7,0.7-2.1,1.7-2.9,1.8
					c-1.4,0.2-2.6-0.5-3.3-2.2c-1-2.1-2.4-3.6-4.2-1.9c-1.7,1.6-1.5,3.2-0.3,5C252.2,31.1,256.8,32.3,261.4,27.9z"/>
			</g>
		</g>
	</g>
	<g>
		<g>
			<g>
				<path d="M261.6,27.9c0.9-0.9,1.8-1.9,2.5-3.1c-0.2-0.3-0.2-0.5-0.9-0.5c-0.5,0.7-1,1.4-1.7,2c-0.7,0.7-2.1,1.7-2.9,1.8
					c-1.4,0.2-2.6-0.5-3.3-2.2c-1-2.1-2.4-3.6-4.2-1.9c-1.7,1.6-1.5,3.2-0.3,5C252.4,31,257,32.3,261.6,27.9z"/>
				<path d="M349.4,50c-0.2,0-0.3,0.2-1.6,1.8c-6.1,7.7-11.7,13.6-14.9,13.6c-1.4,0-1.8-0.7-1.8-1.6c0-4,12.2-24.2,15.1-28.1
					l-6.1,0.1c0,0-1.3,2.4-5.1,8.9l0.2-0.9c0.2-0.7,0.3-1.8,0.3-3.1c0-3.1-1.4-5.6-4.5-5.6c-7.2,0-15.7,5.8-21.4,13.3
					c-0.6,0.8-2.3,3.2-7.2,8.9c-2,2.3-7.2,8.1-10.5,8.1c-0.8,0-1.6-0.8-1.6-1.7c0-0.8,2.3-5.6,2.3-7.9c0-2.5-2.7-6.4-5.6-6.9
					l-0.4-0.1c3.3-0.7,7.3-3.6,9.1-6.7c1.7-3,3-4.5,5.3-4.9c-1.7,1.7-0.4,4.8,1.8,4.8c1.5,0,3.5-1.3,3.5-3.2c0-2-1.7-3.5-4-3.5
					c-2.4,0-4,0.9-7,5.2c-2.9,4.3-7.4,7.1-9.2,7.4c-1,0.2-1.8,0.2-2.3,0.2c-0.5,0-1,0-1.4,0.1l14.7-26.5l-6.2,0.1
					c-7.4,11.3-6.6,10.1-13.2,18.9c-4.1,5.5-8.5,10.9-14.1,17c-4.9,5.6-8.4,7.8-9.8,7.8c-1.3,0-1.8-0.7-1.8-1.9c0-5,13-23,15.8-28.3
					l-6.7,0.5c-6.5,12.2-20.5,29.8-26,29.8c-0.8,0-1.8-0.6-1.8-1.9c0-4.4,2.7-6,15.6-28.3l-6.2,0.4c-3.6,3.2-6.3,6.1-8.4,8.5
					c-2.4,2.8-5.8,7.1-6.3,7.6c-6.1,7.7-11.7,13.6-14.9,13.6c-1.4,0-1.8-0.7-1.8-1.6c0-4,12.2-24.2,15.1-28.1l-6.1,0.1
					c0,0-1.2,2.2-5,8.7l0.1-0.7c0.2-0.7,0.3-1.8,0.3-3.1c0-3.1-1.4-5.5-4.5-5.6c-10.3-0.3-15.7,5.8-21.4,13.3
					c-0.7,1-1.1,1.4-1.4,1.8c-1,1.2-2.5,3.2-4.2,4.5c-2.3,1.8-4.1,2.3-5.1,2.5c2-2.7,3.9-7.6,4.4-12.2c0.8-7.9-3-9.8-7.3-9.8
					c-5.9,0-10.1,4-13.4,8.1c-1.8,2.2-2.4,2.8-2.9,3.6l14.2-25.4l-5.2,0.1l-13.4,23.6l0-0.6c0.1-0.8,0.6-3,0.6-3.9
					c0-4.1-2.2-5.6-5.1-5.6c-4.9,0-13.5,3.5-19.9,10.7c-1.9,2.1-3.1,3.7-3.7,4.6c-0.3,0.4-0.8,1-1.8,2.3c-3.8,4.9-9,9.8-16.2,13.5
					l0,0l17.5-31l-6.7,0.7c-3.4,7.3-20,29.3-26.5,29.3c-1.2,0-1.5-0.5-1.5-1.7c0-4.2,10.1-14,10.1-22c0-3.1-1.4-6.3-4.6-6.3
					c-2.4,0-5.9,1.8-11.8,9.1c-1,1.2-1.7,2.1-2.4,2.9c1-2.5,1.7-5.3,2-8.1c0.8-9-3-11.1-7.3-11.1c-4.1,0-7.4,2.2-10.1,5.1L85,0.4
					c0,0-1.5-0.3-1.6-0.4C75.2,11,64.2,9.3,62.8,9c-0.1,0,0.1,0,0,0c-7.3-1.7-6.4-9-6.4-9s-0.6,0.1-1.2,0.3
					c-0.3,3.6-7.4,10.6-7.4,10.6c0.3,0.3,0.3,0.4,0.8,0.5c6.2-6.4,8.1-1.9,14.3-1c6.1,0.9,10.7-0.1,13.8-1.5
					C70.3,17.8,61.6,32.7,59,37.2c2.1-7.2,1.7-16.3-1.7-17.5c-12.9-5.5-29.7,9.3-31.4,29C25.3,55.4,27.1,61.4,32,62
					c9.6,1.1,18.4-11,19.2-21.5c0.4-4.7,0.1-10.6-4.5-12.2c-0.2,0-1.2,1.2-0.9,1.3c2.1,0.6,3,1.7,3.7,5.4
					c1.4,8.2-3.1,24.7-16.4,25.7C30.4,61,29.7,56,30,52c0.7-8.1,13.6-32.6,25.7-31.2c4.1,0.5,3.5,8.6,2.1,14.4
					c-0.9,3.5-2.3,7.3-3.1,9.7l-3.9,8.6h0C43.4,68.1,32.4,94,13.8,94c-4.8,0-6.7-2-6.7-4.4c0-1.1,1-1.9,1-4c0-2.6-2-4.3-4.3-4.3
					c-2.5,0-3.9,2.2-3.9,4.8c0,6.6,5.9,9.3,12.4,9.3c16.1,0,31.5-15.9,40.9-33.6c1.4-2.7,4.3-8.3,4.3-8.3c0,0.5-0.1,1-0.1,1.5
					c0,5.2,2.3,8.9,6.3,8.9c4.4,0,10.4-2.5,15.9-9l1.3-2c0.3-0.4,0.6-1,0.9-1.5c0.6-0.6,1.7-2.4,6.1-7.4c4-4.5,7.1-7.3,9.7-7.3
					c1.3,0,1.7,0.6,1.7,1.5c0,5-10.1,13.7-10.1,22c0,3.1,1.9,6.5,4.5,6.5c5.1,0,16.4-13.3,19.2-17.4l0.2,0.2L104,68.7
					C86.7,79.9,76.2,86.2,76.2,93.9c0,4.1,2.2,6.1,5.1,6.1c6.3,0,16.3-11.1,27.1-31.8c6.1-3.4,9.9-4.7,15.7-11.7
					c1.2-1.5,2.9-3.6,3.8-4.9c0.3-0.3,0.6-0.7,1-1.2c0.1-0.2,0.3,0.1,0.3,0.2c0,0.2-1.6,3-1.9,6.6c-0.4,6.1,0.4,9.7,7.2,9.5
					c5.9-0.1,13.6-9.1,15.5-11.6l0.6-0.4l-24,42.9l5.5,0l25.1-45.9c-1,2.4-1.7,5-1.7,7.2c0,4.5,2.3,7.8,6.3,7.8
					c4.4,0,10.4-2.2,15.8-8c2.8-0.3,5.6-1.6,7.3-3.1c1.7-1.4,3.4-3.5,4.2-4.6c0.1,0,0.1-0.1,0.1-0.1c-0.3,1.8-1.1,3.9-1.3,5.7
					c-0.4,5.2,0.4,9.9,7.3,10c4,0.1,9.8-6.5,13-9.9c0,0.6-0.6,1.9-0.8,2.7c-0.8,5.6,1.7,7.7,5.7,7.3c2.8-0.3,6.4-3.7,11.2-9.1
					c1.8-2.1,5.8-7.3,6.8-8.5c3.2-3.6,6.5-7.8,9.5-10.3l0.2,0.2c-4,6.4-11.5,12.8-11.5,21.5c0,3.4,2.1,6,5.5,6
					c4.8,0,11.3-8.3,14.4-11.8l0.2,0.2c-0.4,1.3-1.2,3.3-1.3,4.9c-0.1,2.8,0.2,6.6,5,6.7c2.8,0.1,6.1-2.7,11.4-8.6
					c1.5-1.7,6.3-7.6,10-11.9c2.2-2.6,5.4-6.9,7.1-9.1l0.2,0.2l-16.8,29.4l7.1-0.5l9.4-16.9c0.2,0,0.3-0.1,0.5-0.1
					c1.9,0,2.8-0.1,3.9-0.1c0.8,0,1.9,0.9,1.9,1.8c0,1.9-1.2,4-2,7.3c-0.9,3.5-0.6,8.3,5.5,8.4c3.5,0.1,8.7-5.1,12.4-9.4
					c1.9-2.2,4.1-4.9,4.9-6.1c0.1,0,0.1-0.1,0.2-0.1c-0.3,1.8-1.2,3.9-1.4,5.7c-0.3,5.3,0.4,9.9,7.4,10c4,0.1,9.8-6.5,13-9.9
					c0,0.6-0.2,1.6-0.4,2.4c-1.2,6.7,1.7,7.8,4.9,7.5c2.8-0.2,6.8-3.5,11.6-9c2.4-2.8,5.8-6.9,5.8-7.2C350,50.4,349.8,50,349.4,50z
					 M63.7,62.7c-3.2,0.1-4.8-3.2-4.8-6.3c0-2.8,0.6-5.8,1.7-8.8l5-9.7c3.7-5.1,8.2-8.8,12.3-8.8c1.5,0,2.7,1.6,2.7,5.2
					C80.5,45.1,71,62.4,63.7,62.7z M81.7,98.6c-1.8,0.2-3.1-1.4-3.1-4.3c0-5.9,5.5-10.5,24.6-23.8l0.2-0.1
					C94.2,90.7,87,98,81.7,98.6z M134.6,65.4c-1.2,0-1.8-1.7-1.8-3.2c0-11.8,11.9-25.7,18.3-25.7c2.8,0,3.9,1.1,3.9,4.2
					C155,48.4,142.8,65.4,134.6,65.4z M161.6,65.4c-2.6,0-3.7-2.4-3.7-5.1c0-10.3,9.7-23.7,18-23.7c1.5,0,2.7,1,2.7,4.2
					C178.7,50.3,168.9,65.4,161.6,65.4z M195.5,65.4c-1.7,0-2.4-1.5-2.4-3.6c0-8.2,9.8-25.2,18.3-25.2c2.2,0,3.2,1.8,3.2,4.1
					C214.6,49.1,201.5,65.4,195.5,65.4z M315.1,65.4c-1.7,0-2.4-1.5-2.4-3.6c0-8.2,9.8-25.2,18.3-25.2c2.2,0,3.2,1.8,3.2,4.1
					C334.3,49.1,321.2,65.4,315.1,65.4z"/>
			</g>
		</g>
	</g>
</g>
</svg>
