<?xml version="1.0" encoding="utf-8"?>
<!-- Generator: Adobe Illustrator 20.1.0, SVG Export Plug-In . SVG Version: 6.00 Build 0)  -->
<svg version="1.1" id="Layer_1" xmlns="http://www.w3.org/2000/svg" xmlns:xlink="http://www.w3.org/1999/xlink" x="0px" y="0px"
	 viewBox="0 0 116 100" style="enable-background:new 0 0 116 100;" xml:space="preserve">
<style type="text/css">
	.st0{fill:#FFFFFF;}
</style>
<g>
	<g>
		<g>
			<path class="st0" d="M82.2,52.6v1.9h16.1c1.1,0,2.7,0,3.8,1.1c1.1,1.1,1.1,2.7,1.1,3.8v16.2c0,1.1,0,2.7-1.1,3.8
				s-2.7,1.1-3.8,1.1h-7.8c-1.3,0-3.1,0-3.8-1.5c-0.7-1.5,0.3-2.8,1.1-3.9L98.3,61H82.2l-6.4,8.7c-1.1,1.5-2,2.7-2,4.3
				s0.9,2.8,2,4.3l1.6,2.2c1.6,2.2,3.2,4.3,5.4,5.4C85,87,87.5,87,91,87h7c4,0,10.1,0,14.1-4.1s4-10,4-12.2v-6.5c0-2.2,0-8.1-4-12.2
				c-4.2-4-10.2-4-14.2-4H86.7c-1.1,0-2.4,0-3.5,1.1C82.2,50.2,82.2,51.5,82.2,52.6"/>
			<polygon class="st0" points="62.8,61 78.9,61 59.6,87 43.5,87 			"/>
			<path class="st0" d="M0,65.6c0-1.1,0-2.4,1.1-3.5C2.1,61,3.5,61,4.6,61h27c3.5,0,6,0,8.2,1.1c2.1,1.1,3.8,3.3,5.4,5.4l1.6,2.2
				c1.1,1.5,2,2.7,2,4.3s-0.9,2.9-2,4.3L40.3,87H24.2l10.5-14.1c0.8-1.1,1.7-2.4,1.1-3.9c-0.7-1.5-2.4-1.5-3.8-1.5H19.4V100h-13
				V67.5H0V65.6"/>
		</g>
	</g>
</g>
</svg>
