<?xml version="1.0" encoding="utf-8"?>
<!-- Generator: Adobe Illustrator 20.1.0, SVG Export Plug-In . SVG Version: 6.00 Build 0)  -->
<svg version="1.1" id="Layer_1" xmlns="http://www.w3.org/2000/svg" xmlns:xlink="http://www.w3.org/1999/xlink" x="0px" y="0px"
	 viewBox="0 0 48 48" style="enable-background:new 0 0 48 48;" xml:space="preserve">
<style type="text/css">
	.st0{fill:none;stroke:#8F8F8F;stroke-miterlimit:10;}
	.st1{fill:none;stroke:#8F8F8F;stroke-linecap:round;stroke-miterlimit:10;}
	.st2{fill:none;stroke:#8F8F8F;stroke-linejoin:round;stroke-miterlimit:10;}
</style>
<circle class="st0" cx="18" cy="13.5" r="6"/>
<line class="st1" x1="18" y1="13.5" x2="18" y2="10"/>
<line class="st1" x1="18" y1="13.5" x2="15.7" y2="15.8"/>
<circle class="st0" cx="32.5" cy="37" r="3.5"/>
<circle class="st0" cx="15.5" cy="37" r="3.5"/>
<path class="st2" d="M12,13.5H9.5c-1.1,0-2,0.9-2,2v18h2v3H12"/>
<path class="st2" d="M19,36.5h8.5v-21c0-1.1-0.9-2-2-2H24"/>
<path class="st2" d="M29,36.5h-1.5v-16c0-1.1,0.9-2,2-2h1c5.5,0,10,4.5,10,10v6c0,1.1-0.9,2-2,2H36"/>
<path class="st2" d="M40.5,28.5h-8c-1.1,0-2-0.9-2-2v-8"/>
</svg>
